<svg id="Lager_1" xmlns="http://www.w3.org/2000/svg" viewBox="0 0 500 500"><style>.st0{fill:#60cd18}.st1{fill:#fff}</style><path class="st0" d="M0 0h500v500H0z"/><path class="st1" d="M181.6 217.7l-16.2 12.1c-7.6-6.6-17.5-7.9-22.9-7.9-5.5 0-11.2 1.6-12.1 5.5-.9 3.8 2.7 6.8 8.8 8.5 7 1.9 13.3 3.5 23.1 6.3 14.5 4.1 24.5 10.4 24.5 25 0 20.1-17.8 30.5-41.7 30.5-23.9 0-40.2-12.4-45-18.3l17.1-12.8c12 10.5 20.4 11.9 27.3 11.9 8 0 15.5-1.7 16.5-6.2.8-3.6-2.2-6.5-9.1-8.1-7.7-1.8-14.2-3.2-21.5-5.1-19.7-5.2-25.3-16.6-25.3-26.9 0-14.2 13.2-28.7 37.3-28.7 24.7.1 39.2 14.2 39.2 14.2M284.7 205h-72.1v90.1H286v-20.8h-48.1v-14.5H271v-19.9h-33.1v-14.3h46.8V205zm-90.8 110.9h5.6V184.1h-5.6v131.8zm101.5 0h5.6V184.1h-5.6v131.8zm18.7-20.8H372c15.5 0 28-9.3 28-24.3 0-11.7-7.6-19.4-18.3-22.8 0 0-.4-.1-1-.1.6-.1 1-.2 1-.2 6.1-2.4 12.9-8.9 12.9-19.9 0-13.9-12.3-22.8-27.6-22.8h-53v90.1zm25.4-71.4h20.2c4.7 0 8.4 3.7 8.4 7.9s-3.8 7.9-8.4 7.9h-20.2v-15.8zm24.7 51.3h-24.7v-16.4h24.7c4.4 0 7.9 3.5 7.9 8.2.1 4.7-3.5 8.2-7.9 8.2z"/></svg>